<svg width="239" height="70" viewBox="0 0 239 70" fill="none" xmlns="http://www.w3.org/2000/svg">
<path d="M11.006 0L45.9965 34.7369C46.1521 34.8914 46.4031 34.8922 46.5597 34.7387L81.9816 0H70.7216L46.4938 24.0786L22.2661 0H11.006Z" fill="#AE1913"/>
<path d="M70.4043 70L83.6698 26.583L52.4084 57.6519L52.4538 57.6976L47.0594 62.9725C46.9033 63.1251 46.6536 63.1248 46.498 62.9717L41.1195 57.6806L41.1824 57.6181L10.4986 26.7514L23.7207 70H15.501L0.174934 18.5962C-1.12256 13.5671 5.1028 10.0643 8.77419 13.7576L46.8125 52.0227L85.3851 13.6876C89.0673 10.028 95.2559 13.5347 93.9625 18.5481L78.6239 70H70.4043Z" fill="#AE1913"/>
<path d="M127.081 38V23.088L121.249 34.192H118.781L112.949 23.088V38H108.526V15.28H113.269L119.999 28.208L126.793 15.28H131.504V38H127.081Z" fill="#AE1913"/>
<path d="M143.311 38.32C141.944 38.32 140.715 38.096 139.626 37.648C138.536 37.1787 137.607 36.5387 136.838 35.728C136.09 34.9173 135.513 33.9893 135.107 32.944C134.701 31.8987 134.498 30.8 134.498 29.648C134.498 28.4747 134.701 27.3653 135.107 26.32C135.513 25.2747 136.09 24.3467 136.838 23.536C137.607 22.7253 138.536 22.096 139.626 21.648C140.715 21.1787 141.944 20.944 143.311 20.944C144.679 20.944 145.896 21.1787 146.965 21.648C148.054 22.096 148.984 22.7253 149.753 23.536C150.522 24.3467 151.099 25.2747 151.483 26.32C151.889 27.3653 152.092 28.4747 152.092 29.648C152.092 30.8 151.889 31.8987 151.483 32.944C151.099 33.9893 150.522 34.9173 149.753 35.728C149.005 36.5387 148.086 37.1787 146.997 37.648C145.907 38.096 144.679 38.32 143.311 38.32ZM138.921 29.648C138.921 30.6293 139.113 31.504 139.498 32.272C139.882 33.0187 140.406 33.6053 141.068 34.032C141.73 34.4587 142.478 34.672 143.311 34.672C144.123 34.672 144.86 34.4587 145.522 34.032C146.185 33.584 146.708 32.9867 147.093 32.24C147.499 31.472 147.702 30.5973 147.702 29.616C147.702 28.656 147.499 27.792 147.093 27.024C146.708 26.256 146.185 25.6587 145.522 25.232C144.86 24.8053 144.123 24.592 143.311 24.592C142.478 24.592 141.73 24.816 141.068 25.264C140.406 25.6907 139.882 26.288 139.498 27.056C139.113 27.8027 138.921 28.6667 138.921 29.648Z" fill="#AE1913"/>
<path d="M164.989 24.944C163.686 24.944 162.521 25.2 161.496 25.712C160.47 26.2027 159.733 26.9173 159.285 27.856V38H154.99V21.232H158.932V24.816C159.53 23.664 160.289 22.7573 161.208 22.096C162.126 21.4347 163.098 21.072 164.124 21.008C164.359 21.008 164.54 21.008 164.669 21.008C164.797 21.008 164.904 21.0187 164.989 21.04V24.944Z" fill="#AE1913"/>
<path d="M174.92 38.32C173.552 38.32 172.324 38.096 171.234 37.648C170.145 37.1787 169.215 36.5387 168.446 35.728C167.699 34.9173 167.122 33.9893 166.716 32.944C166.31 31.8987 166.107 30.8 166.107 29.648C166.107 28.4747 166.31 27.3653 166.716 26.32C167.122 25.2747 167.699 24.3467 168.446 23.536C169.215 22.7253 170.145 22.096 171.234 21.648C172.324 21.1787 173.552 20.944 174.92 20.944C176.287 20.944 177.505 21.1787 178.573 21.648C179.663 22.096 180.592 22.7253 181.361 23.536C182.13 24.3467 182.707 25.2747 183.092 26.32C183.498 27.3653 183.701 28.4747 183.701 29.648C183.701 30.8 183.498 31.8987 183.092 32.944C182.707 33.9893 182.13 34.9173 181.361 35.728C180.613 36.5387 179.695 37.1787 178.605 37.648C177.516 38.096 176.287 38.32 174.92 38.32ZM170.529 29.648C170.529 30.6293 170.722 31.504 171.106 32.272C171.491 33.0187 172.014 33.6053 172.677 34.032C173.339 34.4587 174.087 34.672 174.92 34.672C175.732 34.672 176.469 34.4587 177.131 34.032C177.793 33.584 178.317 32.9867 178.701 32.24C179.107 31.472 179.31 30.5973 179.31 29.616C179.31 28.656 179.107 27.792 178.701 27.024C178.317 26.256 177.793 25.6587 177.131 25.232C176.469 24.8053 175.732 24.592 174.92 24.592C174.087 24.592 173.339 24.816 172.677 25.264C172.014 25.6907 171.491 26.288 171.106 27.056C170.722 27.8027 170.529 28.6667 170.529 29.648Z" fill="#AE1913"/>
<path d="M194.418 38.32C193.051 38.32 191.823 38.096 190.733 37.648C189.644 37.1787 188.714 36.5387 187.945 35.728C187.176 34.896 186.578 33.9573 186.15 32.912C185.745 31.8667 185.542 30.768 185.542 29.616C185.542 28.0373 185.894 26.5973 186.599 25.296C187.325 23.9733 188.351 22.9173 189.676 22.128C191 21.3387 192.57 20.944 194.386 20.944C196.202 20.944 197.762 21.3387 199.065 22.128C200.368 22.9173 201.341 23.952 201.982 25.232L197.783 26.512C197.42 25.8933 196.94 25.424 196.341 25.104C195.743 24.7627 195.081 24.592 194.354 24.592C193.543 24.592 192.795 24.8053 192.111 25.232C191.449 25.6373 190.925 26.224 190.541 26.992C190.156 27.7387 189.964 28.6133 189.964 29.616C189.964 30.5973 190.156 31.472 190.541 32.24C190.947 32.9867 191.481 33.584 192.143 34.032C192.805 34.4587 193.543 34.672 194.354 34.672C194.867 34.672 195.348 34.5867 195.797 34.416C196.267 34.2453 196.683 34.0107 197.046 33.712C197.41 33.4133 197.677 33.072 197.848 32.688L202.046 33.968C201.661 34.8 201.095 35.5467 200.347 36.208C199.621 36.8693 198.755 37.392 197.751 37.776C196.769 38.1387 195.658 38.32 194.418 38.32Z" fill="#AE1913"/>
<path d="M212.351 38.32C210.984 38.32 209.755 38.096 208.666 37.648C207.576 37.1787 206.647 36.5387 205.877 35.728C205.108 34.896 204.51 33.9573 204.083 32.912C203.677 31.8667 203.474 30.768 203.474 29.616C203.474 28.0373 203.826 26.5973 204.531 25.296C205.258 23.9733 206.283 22.9173 207.608 22.128C208.933 21.3387 210.503 20.944 212.319 20.944C214.135 20.944 215.694 21.3387 216.998 22.128C218.301 22.9173 219.273 23.952 219.914 25.232L215.716 26.512C215.353 25.8933 214.872 25.424 214.274 25.104C213.676 24.7627 213.013 24.592 212.287 24.592C211.475 24.592 210.727 24.8053 210.044 25.232C209.381 25.6373 208.858 26.224 208.473 26.992C208.089 27.7387 207.896 28.6133 207.896 29.616C207.896 30.5973 208.089 31.472 208.473 32.24C208.879 32.9867 209.413 33.584 210.076 34.032C210.738 34.4587 211.475 34.672 212.287 34.672C212.8 34.672 213.28 34.5867 213.729 34.416C214.199 34.2453 214.616 34.0107 214.979 33.712C215.342 33.4133 215.609 33.072 215.78 32.688L219.978 33.968C219.593 34.8 219.027 35.5467 218.28 36.208C217.553 36.8693 216.688 37.392 215.684 37.776C214.701 38.1387 213.59 38.32 212.351 38.32Z" fill="#AE1913"/>
<path d="M230.219 38.32C228.852 38.32 227.623 38.096 226.534 37.648C225.444 37.1787 224.515 36.5387 223.746 35.728C222.998 34.9173 222.421 33.9893 222.015 32.944C221.609 31.8987 221.406 30.8 221.406 29.648C221.406 28.4747 221.609 27.3653 222.015 26.32C222.421 25.2747 222.998 24.3467 223.746 23.536C224.515 22.7253 225.444 22.096 226.534 21.648C227.623 21.1787 228.852 20.944 230.219 20.944C231.587 20.944 232.804 21.1787 233.873 21.648C234.962 22.096 235.891 22.7253 236.661 23.536C237.43 24.3467 238.007 25.2747 238.391 26.32C238.797 27.3653 239 28.4747 239 29.648C239 30.8 238.797 31.8987 238.391 32.944C238.007 33.9893 237.43 34.9173 236.661 35.728C235.913 36.5387 234.994 37.1787 233.905 37.648C232.815 38.096 231.587 38.32 230.219 38.32ZM225.829 29.648C225.829 30.6293 226.021 31.504 226.406 32.272C226.79 33.0187 227.314 33.6053 227.976 34.032C228.638 34.4587 229.386 34.672 230.219 34.672C231.031 34.672 231.768 34.4587 232.43 34.032C233.093 33.584 233.616 32.9867 234.001 32.24C234.407 31.472 234.61 30.5973 234.61 29.616C234.61 28.656 234.407 27.792 234.001 27.024C233.616 26.256 233.093 25.6587 232.43 25.232C231.768 24.8053 231.031 24.592 230.219 24.592C229.386 24.592 228.638 24.816 227.976 25.264C227.314 25.6907 226.79 26.288 226.406 27.056C226.021 27.8027 225.829 28.6667 225.829 29.648Z" fill="#AE1913"/>
<path d="M108.222 46.96L114.327 61.912L120.408 46.96H122.162L115.096 64H113.558L106.467 46.96H108.222Z" fill="#AE1913"/>
<path d="M124.27 64V51.496H125.905V64H124.27ZM124.27 48.88V46.48H125.905V48.88H124.27Z" fill="#AE1913"/>
<path d="M134.912 64.24C134.015 64.24 133.182 64.072 132.413 63.736C131.644 63.384 130.979 62.912 130.418 62.32C129.857 61.712 129.416 61.016 129.096 60.232C128.791 59.448 128.639 58.608 128.639 57.712C128.639 56.544 128.904 55.472 129.432 54.496C129.977 53.52 130.722 52.744 131.668 52.168C132.613 51.576 133.687 51.28 134.888 51.28C136.122 51.28 137.196 51.576 138.109 52.168C139.038 52.76 139.767 53.544 140.296 54.52C140.825 55.48 141.089 56.536 141.089 57.688C141.089 57.816 141.089 57.944 141.089 58.072C141.089 58.184 141.081 58.272 141.065 58.336H130.346C130.426 59.232 130.674 60.032 131.091 60.736C131.523 61.424 132.076 61.976 132.749 62.392C133.438 62.792 134.183 62.992 134.984 62.992C135.802 62.992 136.571 62.784 137.292 62.368C138.029 61.952 138.542 61.408 138.83 60.736L140.248 61.12C139.992 61.712 139.599 62.248 139.07 62.728C138.542 63.208 137.917 63.584 137.196 63.856C136.491 64.112 135.73 64.24 134.912 64.24ZM130.298 57.16H139.551C139.487 56.248 139.239 55.448 138.806 54.76C138.389 54.072 137.837 53.536 137.148 53.152C136.475 52.752 135.73 52.552 134.912 52.552C134.095 52.552 133.35 52.752 132.677 53.152C132.004 53.536 131.451 54.08 131.019 54.784C130.602 55.472 130.362 56.264 130.298 57.16Z" fill="#AE1913"/>
<path d="M159.049 51.496H160.66L155.276 64H153.858L151.238 57.784L148.642 64H147.224L141.84 51.496H143.427L147.993 62.32L150.301 56.68L148.186 51.52H149.652L151.238 55.576L152.848 51.52H154.29L152.199 56.68L154.507 62.32L159.049 51.496Z" fill="#AE1913"/>
</svg>
